# xmcd
#
# Track frame offsets:
#	150
#	18612
#	37372
#	58500
#	72372
#	102245
#	119075
#	136880
#	161832
#	178915
#	201237
#	220780
#	237709
#	260777
#	281135
#
# Disc length: 3998 seconds
#
# Revision: 1
# Processed by: cddbd v1.5.1PL0 Copyright (c) Steve Scherf et al.
# Submitted via: audiograbber 1.83.01
#
DISCID=fd0f9c0f
DTITLE=Fafá de Belém - Brilhantes
DYEAR=1900
DGENRE=MPB
TTITLE0=Todo Dia
TTITLE1=Bandoleiro
TTITLE2=Meu Disfarce
TTITLE3=Meu homem (nobody does it better)
TTITLE4=Romaria
TTITLE5=Vermelho
TTITLE6=É tão bom te amar
TTITLE7=Cantiga para ninar meu namorado
TTITLE8=Grão de Areia
TTITLE9=Pra nunca mais
TTITLE10="P" da vida
TTITLE11=O homem que eu amo
TTITLE12=Pássaro sonhador
TTITLE13=Abandonada
TTITLE14=Poeira de Estrelas (Stardust)
EXTD=
EXTT0=
EXTT1=
EXTT2=
EXTT3=
EXTT4=
EXTT5=
EXTT6=
EXTT7=
EXTT8=
EXTT9=
EXTT10=
EXTT11=
EXTT12=
EXTT13=
EXTT14=
PLAYORDER=
